<?xml version="1.0" encoding="utf-8"?>
<svg version="1.1" xmlns:xlink="http://www.w3.org/1999/xlink" width="103px" height="53px" xmlns="http://www.w3.org/2000/svg">
  <g transform="matrix(1 0 0 1 -562 -470 )">
    <path d="M 562 502.1  C 562 502.1  562 475  562 475  C 562 472.238576250846  564.238576250846 470  567 470  C 567 470  660 470  660 470  C 662.761423749154 470  665 472.238576250846  665 475  C 665 475  665 502.1  665 502.1  C 665 504.861423749154  662.761423749154 507.1  660 507.1  C 660 507.1  602.196273291925 507.1  602.196273291925 507.1  C 602.196273291925 507.1  592.196273291925 523  592.196273291925 523  C 592.196273291925 523  582.196273291925 507.1  582.196273291925 507.1  C 582.196273291925 507.1  567 507.1  567 507.1  C 564.238576250846 507.1  562 504.861423749154  562 502.1  Z " fill-rule="nonzero" fill="#677caf" stroke="none" fill-opacity="0.819607843137255" />
  </g>
</svg>