<?xml version="1.0" standalone="no"?><!DOCTYPE svg PUBLIC "-//W3C//DTD SVG 1.1//EN" "http://www.w3.org/Graphics/SVG/1.1/DTD/svg11.dtd"><svg t="1757559298694" class="icon" viewBox="0 0 1024 1024" version="1.1" xmlns="http://www.w3.org/2000/svg" p-id="8814" xmlns:xlink="http://www.w3.org/1999/xlink" width="200" height="200"><path d="M1002.283488 70.432645V14.856886c0-8.155566-4.166217-12.754126-13.029254-12.754126H32.203505C23.851419 2.10276 19.685203 6.70132 19.685203 14.856886v55.575759c0 8.646865 3.655266 16.822083 12.518302 16.822083H157.248963v915.192042c-11.869787 9.708071-4.048305 17.352686 5.856285-0.196519h694.186037c4.69682 17.549205 9.39364 15.525053 12.518302 12.439694 3.144315-3.046055 5.207771-7.644615-5.089859-12.223523V87.254728h124.534506c7.290879 0 13.029253-7.664267 13.029254-16.822083z m-176.867692 886.146437h1.631113c0 9.688419-7.821482 17.333034-17.745725 17.843985V962.946319H211.6063c-9.904591 11.476748-17.726073 3.832133-18.237025-5.856285H196.552894V144.36334c-3.183618-9.688419 4.637864-17.843985 15.053406-6.79958h597.183933c9.904591-11.044405 17.726073-2.888839 16.625563 6.79958v812.215742zM786.111865 185.121517v333.965505c0.255476 6.111761-3.930393 11.732224-10.179718 12.243175-1.041554 0-2.083108 0-3.144315-0.746775H247.628353c-6.268977 1.768677-11.476748-2.318932-12.518302-8.450345 0-1.00225 0-2.024152 0.766426-3.046055V185.141169c-1.807981-6.111761 2.358236-11.20162 8.607561-12.223523 1.061206 0 2.10276 0 3.144315 3.950045h525.198783c6.249325-4.971947 11.987699-0.393039 12.518302 5.227423 0 1.00225 0 2.024152 0.786079 3.046055zM411.899134 759.253695v-15.800181h56.322534v15.800181h-56.322534z m0 27.021453v-15.800181h56.322534v15.800181h-56.322534z m119.424996-40.777829l1.572157 1.513201c7.821482 7.664267 12.518302 17.863637 13.029253 28.554306 0 9.177468-1.572157 10.710321-13.559856 11.732224l-8.863037 0.510951v-76.485451h20.339785l-12.518302 34.174769zM786.111865 581.816097c-2.358236-6.622712-7.566007-11.712572-13.834984-11.909092H245.525592c-6.79958 0.19652-11.987699 5.286379-9.668767 11.909092V920.891113c-2.338584 6.622712 2.869187 11.712572 9.668767 2.751275h526.751289c6.779928 8.961296 11.987699 3.871437 13.834984-2.751275V581.816097z m-391.427853 121.350888l7.821482-7.644615 2.083109 2.043805c8.352085 7.644615 15.642965 16.311132 22.953496 24.977648l1.572157 2.043804-8.352085 7.644615-2.083109-2.554756a195.320887 195.320887 0 0 0-21.911942-23.975398l-2.083108-2.535103z m-4.185869 66.28608l-1.041554 3.065707c-4.166217 14.267327-11.987699 37.731774-17.726073 52.510052l-1.041554 2.554756-10.946145-3.576658 1.041554-3.065707c6.779928-16.822083 13.029253-34.155116 17.726073-51.999101l1.041555-3.065707 5.738373 1.532854 5.207771 2.043804z m0.530603-17.333034l-7.310531 8.666517-2.594059-2.554755a273.358843 273.358843 0 0 0-26.608762-21.911942l-2.594059-2.043805 7.290879-8.666516 2.613711 2.043804c9.373988 7.133664 18.767627 14.267327 27.119713 22.422893l2.083108 2.043804z m7.310532-32.130964l-6.779928 9.688419-2.613712-2.554755c-8.352085-7.644615-17.215122-14.778278-26.608761-21.420643l-2.59406-2.024152 6.779928-9.177468 2.59406 2.043804c9.39364 6.622712 18.276328 13.756376 27.119712 21.931594l2.102761 1.513201z m82.931295 12.754126l-1.061206 74.952597c0 14.267327-6.249325 16.822083-20.339785 18.354936l-11.987699 1.021902-3.655265-10.710321 14.090459-1.021902c10.415542-1.021902 10.415542-1.021902 10.415542-8.666517v-9.688419h-56.322534v30.067508H400.933337v-94.309784h34.430244v-43.332584h11.476748v43.332584h34.410592z m6.249325-29.576208l-2.083108 2.043804c-7.841134 8.666517-15.662617 17.333034-24.525653 24.977649l-2.083109 2.043804-8.352085-7.664267 2.613711-2.024152c8.863037-7.133664 16.704171-15.289229 23.464447-24.466697l2.102761-2.554756 8.843384 7.664267z m157.510505 10.710321l-0.530603 10.19937h-61.549956c0 8.666517 0 16.822083-0.510952 20.398741v1.532853h45.88734v3.046055c0 1.021902-2.594059 46.398291-3.124662 53.021003-1.572157 16.841735-9.39364 19.887789-25.036605 20.398741l-15.132013 0.510951-3.124663-11.732224h16.704171c12.518302 0 14.070807-2.024152 15.132014-10.690669 0.510951-6.642364 2.063456-33.152866 2.063456-43.352237h-34.941195c-2.594059 34.685719-10.415542 49.974949-33.369038 70.354038l-2.083108 2.043804-8.352085-8.155566 2.613711-2.024152c25.036604-21.420643 29.202821-34.685719 31.285929-76.485451l1.041555-19.376838H551.663914v-1.021902L544.392687 742.451264a52.470748 52.470748 0 0 1 13.559856 33.133214c0 17.333034-7.841134 20.909692-23.99505 21.931594l-9.39364 1.021902-1.041554-2.554755v32.130964h-11.476748V700.592577h44.845786v8.686169l-1.572157 4.067957h35.49145c-1.572157-5.60081-3.144315-9.688419-5.227423-15.289229l-2.613712-6.642365 10.965797-1.513201 1.041555 2.554755c2.613711 7.133664 5.207771 14.267327 7.290879 21.400991h42.782329z" fill="#CF0707" p-id="8815"></path></svg>