<?xml version="1.0" standalone="no"?><!DOCTYPE svg PUBLIC "-//W3C//DTD SVG 1.1//EN" "http://www.w3.org/Graphics/SVG/1.1/DTD/svg11.dtd"><svg t="1757985469220" class="icon" viewBox="0 0 1024 1024" version="1.1" xmlns="http://www.w3.org/2000/svg" p-id="6535" xmlns:xlink="http://www.w3.org/1999/xlink" width="200" height="200"><path d="M512 274.218667c26.752 0 52.650667 5.333333 77.056 15.786666a200.661333 200.661333 0 0 1 105.472 107.093334c10.282667 24.746667 15.488 51.072 15.488 78.250666 0 32.298667-7.338667 63.104-21.76 91.648a203.264 203.264 0 0 1-58.24 69.717334 72.789333 72.789333 0 0 0-28.117333 58.026666v55.04H421.973333v-55.210666a72.96 72.96 0 0 0-28.16-57.984 202.325333 202.325333 0 0 1-78.165333-188.842667 199.594667 199.594667 0 0 1 57.685333-115.968 199.253333 199.253333 0 0 1 52.650667-37.717333A190.549333 190.549333 0 0 1 512 274.218667z m0-36.565334c-8.96 0-18.048 0.512-27.306667 1.536-105.088 12.074667-190.890667 97.322667-204.714666 203.776a238.848 238.848 0 0 0 92.373333 222.933334 35.84 35.84 0 0 1 13.568 28.672v55.082666c0 20.266667 16.128 36.608 36.096 36.608h180.053333a36.266667 36.266667 0 0 0 36.053334-36.608v-55.04a35.84 35.84 0 0 1 13.610666-28.714666 238.165333 238.165333 0 0 0 94.464-190.549334c-0.085333-131.242667-104.874667-237.738667-234.24-237.738666v0.042666z m90.026667 603.477334H421.973333a18.176 18.176 0 0 1-18.048-18.261334c0-10.026667 8.106667-18.218667 18.048-18.218666h180.053334c9.984 0 17.962667 8.234667 17.962666 18.218666a18.133333 18.133333 0 0 1-17.92 18.261334zM566.058667 896h-108.074667a18.176 18.176 0 0 1-17.962667-18.261333c0-10.026667 8.106667-18.261333 17.962667-18.261334h108.074667c9.941333 0 18.005333 8.234667 18.005333 18.261334a18.133333 18.133333 0 0 1-18.005333 18.261333zM512 219.392a18.133333 18.133333 0 0 1-17.962667-18.261333V146.261333c0-10.154667 8.064-18.261333 17.92-18.261333 9.941333 0 18.005333 8.234667 18.005334 18.261333v54.869334A18.133333 18.133333 0 0 1 512 219.306667v0.042666z m135.082667 36.693333a18.389333 18.389333 0 0 1-15.530667-27.477333l27.008-47.488a17.834667 17.834667 0 0 1 24.533333-6.656 18.346667 18.346667 0 0 1 6.613334 24.917333l-27.008 47.488a17.877333 17.877333 0 0 1-15.616 9.173334z m98.858666 100.437334a18.346667 18.346667 0 0 1-9.045333-34.133334l46.762667-27.392a17.792 17.792 0 0 1 24.576 6.656 18.346667 18.346667 0 0 1-6.613334 24.96l-46.72 27.434667a17.664 17.664 0 0 1-8.96 2.474667z m-369.066666-100.48a17.92 17.92 0 0 1-15.616-9.130667l-26.965334-47.488a18.346667 18.346667 0 0 1 13.226667-27.264 17.792 17.792 0 0 1 17.92 8.96l27.008 47.488a18.346667 18.346667 0 0 1-15.530667 27.477333zM278.058667 356.522667a17.066667 17.066667 0 0 1-8.96-2.474667L222.293333 326.570667a18.389333 18.389333 0 0 1 4.352-33.408 17.834667 17.834667 0 0 1 13.653334 1.834666l46.762666 27.434667a18.389333 18.389333 0 0 1 0 31.573333 18.176 18.176 0 0 1-9.045333 2.56z" fill="#f4ea2a" p-id="6536"></path><path d="M512 786.261333a18.133333 18.133333 0 0 1-17.962667-18.261333v-153.856L580.266667 526.506667a17.834667 17.834667 0 0 1 25.514666 0 18.56 18.56 0 0 1 0 25.898666l-75.818666 76.928v138.709334a18.133333 18.133333 0 0 1-17.962667 18.176z" fill="#f4ea2a" p-id="6537"></path><path d="M512 639.957333a17.408 17.408 0 0 1-11.264-4.053333l-90.026667-73.088a18.432 18.432 0 0 1 9.258667-32.512 17.92 17.92 0 0 1 13.226667 3.925333l90.069333 73.130667a18.432 18.432 0 0 1-3.456 30.805333 18.005333 18.005333 0 0 1-7.850667 1.792z" fill="#f4ea2a" p-id="6538"></path></svg>