<?xml version="1.0" standalone="no"?><!DOCTYPE svg PUBLIC "-//W3C//DTD SVG 1.1//EN" "http://www.w3.org/Graphics/SVG/1.1/DTD/svg11.dtd"><svg t="1761795630454" class="icon" viewBox="0 0 1035 1024" version="1.1" xmlns="http://www.w3.org/2000/svg" p-id="13940" width="202.1484375" height="200" data-spm-anchor-id="a313x.search_index.0.i5.2fa83a81s5rNRz" xmlns:xlink="http://www.w3.org/1999/xlink"><path d="M933.236364 802.909091H116.363636c-58.181818 0-107.054545-48.872727-107.054545-109.381818V309.527273c0-60.509091 48.872727-109.381818 107.054545-109.381818h809.890909c58.181818 0 107.054545 48.872727 107.054546 109.381818v176.872727c0 20.945455-6.981818 25.6-20.945455 27.927273-9.309091 0-25.6-4.654545-25.6-25.6v-176.872728c0-18.618182-25.6-60.509091-62.836363-60.50909H116.363636c-18.618182 0-58.181818 25.6-58.181818 58.181818v384c0 18.618182 18.618182 58.181818 58.181818 58.181818h809.890909c62.836364 0 72.145455-39.563636 72.145455-58.181818v-37.236364H176.872727c-20.945455 0-34.909091-4.654545-34.909091-25.6 0-23.272727 13.963636-25.6 34.909091-25.6h821.527273c20.945455 0 37.236364-2.327273 37.236364 13.963636v74.472728c0 76.8-48.872727 109.381818-107.054546 109.381818h4.654546z" fill="#d1ce95" p-id="13941"></path><path d="M854.109091 400.290909h-188.509091c-20.945455 0-37.236364-16.290909-37.236364-37.236364s16.290909-37.236364 37.236364-37.236363h188.509091c20.945455 0 37.236364 16.290909 37.236364 37.236363 0 18.618182-16.290909 37.236364-37.236364 37.236364z" fill="#d1ce95" p-id="13942"></path></svg>