<?xml version="1.0" standalone="no"?><!DOCTYPE svg PUBLIC "-//W3C//DTD SVG 1.1//EN" "http://www.w3.org/Graphics/SVG/1.1/DTD/svg11.dtd"><svg t="1758703070770" class="icon" viewBox="0 0 1024 1024" version="1.1" xmlns="http://www.w3.org/2000/svg" p-id="1519" xmlns:xlink="http://www.w3.org/1999/xlink" width="200" height="200"><path d="M321.99111111 904.64711113H36.40888889c-18.31822223 0-33.22311111-14.9048889-33.22311111-33.22311114V153.37244445c0-18.31822223 14.9048889-33.22311111 33.22311111-33.22311112h285.58222222c18.31822223 0 33.22311111 14.9048889 33.22311111 33.22311112v138.35377777h-36.864V157.01333333H40.04977778v710.656h278.18666668V414.71999999h36.86399998v456.70400002c0.11377779 18.31822223-14.79111111 33.22311111-33.10933333 33.22311109z" p-id="1520" fill="#1196db"></path><path d="M179.19999999 457.50044444c-58.70933333 0-106.496-47.78666667-106.49599998-106.49599998s47.78666667-106.496 106.496-106.496c58.70933333 0 106.496 47.78666667 106.496 106.496s-47.78666667 106.496-106.496 106.496z m2e-8-176.12799998c-38.34311113 0-69.51822223 31.17511111-69.51822223 69.51822221s31.17511111 69.51822223 69.51822223 69.5182222 69.51822223-31.17511111 69.51822221-69.5182222-31.17511111-69.51822223-69.51822223-69.51822223z" p-id="1521" fill="#1196db"></path><path d="M962.90133334 428.71466667H251.44888889v-36.864h711.56622222c12.8568889 0 23.21066667-10.46755555 23.21066667-23.21066667v-30.94755555c0-12.8568889-10.46755555-23.21066667-23.21066667-23.21066667H251.44888889V277.61777778h711.56622222c33.22311111 0 60.18844446 26.96533334 60.18844445 60.18844445v30.94755556c-0.11377779 32.99555555-27.07911111 59.9608889-60.30222222 59.96088888zM95.80088889 493.22666666h166.79822222v48.81066667H95.80088889z" p-id="1522" fill="#1196db"></path><path d="M410.2599111 397.37230222l81.93137779-112.47502222 32.92501333 23.98435555-81.93137777 112.47388446zM489.08288 397.31541333l81.93137779-112.4750222 32.92387554 23.98435555-81.93137778 112.47502221zM698.7776 397.3074489l81.93137778-112.47502223 32.92501335 23.98435555-81.9313778 112.47388445zM777.53344 397.34272l81.93137778-112.47502223 32.92387555 23.98435557-81.93137777 112.47388444z" p-id="1523" fill="#1196db"></path></svg>